<?xml version="1.0" encoding="utf-8"?>
<!-- Generator: Adobe Illustrator 23.0.1, SVG Export Plug-In . SVG Version: 6.00 Build 0)  -->
<svg version="1.1" id="Layer_1" xmlns="http://www.w3.org/2000/svg" xmlns:xlink="http://www.w3.org/1999/xlink" x="0px" y="0px"
	 viewBox="0 0 166.791 44" enable-background="new 0 0 166.791 44" xml:space="preserve">
<g>
	<g>
		<polygon points="54.375,13.448 52.242,13.448 52.242,30.218 62.878,30.218 62.878,28.132 54.375,28.132 		"/>
		<polygon points="144.231,19.465 142.809,18.229 138.729,22.923 134.684,18.269 134.648,18.229 133.227,19.465 137.481,24.359 
			133.262,29.211 133.227,29.252 134.648,30.488 138.729,25.794 142.774,30.447 142.809,30.488 144.231,29.252 139.977,24.359 
			144.196,19.506 		"/>
		<polygon points="116.356,25.503 104.918,13.448 104.496,13.448 104.496,30.218 106.629,30.218 106.629,18.163 118.067,30.218 
			118.488,30.218 118.488,13.448 116.356,13.448 		"/>
		<rect x="146.366" y="18.499" width="2.016" height="11.719"/>
		<rect x="146.271" y="13.448" width="2.205" height="1.887"/>
		<path d="M126.876,18.311c-3.281,0-5.883,2.649-5.883,6.047c0,3.375,2.554,6.047,6.024,6.047c2.039,0,3.703-0.844,4.711-1.899
			l-0.01-0.011l-1.435-1.247c-0.755,0.686-1.888,1.258-3.266,1.258c-2.133,0-3.75-1.57-3.938-3.656h9.516
			C132.548,20.679,130.157,18.311,126.876,18.311z M123.173,23.093c0.422-1.781,1.875-2.93,3.586-2.93
			c1.781-0.023,3.281,1.008,3.563,2.93H123.173z"/>
		<path d="M155.8,23.538l-0.999-0.352c-1.413-0.492-1.779-1.055-1.779-1.781c0-0.821,0.804-1.289,1.73-1.289
			c0.855,0,1.46,0.349,1.976,0.914l1.366-1.187c-0.854-1.025-1.994-1.532-3.341-1.532c-2.217,0-3.801,1.359-3.801,3.117
			c0,1.406,0.755,2.695,2.899,3.469l0.951,0.352c1.437,0.492,2.07,0.984,2.07,1.875c0,0.891-0.975,1.477-2.168,1.477
			c-1.287,0-2.111-0.595-2.875-1.477l-1.44,1.252c1.053,1.278,2.55,2.03,4.266,2.03c2.656,0,4.312-1.477,4.312-3.352
			C158.967,25.32,157.87,24.265,155.8,23.538z"/>
		<polygon points="86.942,19.465 85.521,18.229 81.44,22.923 77.395,18.269 77.359,18.229 75.937,19.465 80.192,24.359 
			75.973,29.211 75.937,29.252 77.359,30.488 81.44,25.794 85.485,30.447 85.521,30.488 86.942,29.252 82.688,24.359 86.907,19.506 
					"/>
		<rect x="89.077" y="18.499" width="2.016" height="11.719"/>
		<rect x="88.982" y="13.448" width="2.205" height="1.887"/>
		<path d="M69.586,18.311c-3.281,0-5.883,2.649-5.883,6.047c0,3.375,2.555,6.047,6.024,6.047c2.039,0,3.703-0.844,4.711-1.899
			l-0.01-0.011l-1.435-1.247c-0.755,0.686-1.888,1.258-3.266,1.258c-2.133,0-3.75-1.57-3.938-3.656h9.516
			C75.259,20.679,72.868,18.311,69.586,18.311z M65.883,23.093c0.422-1.781,1.875-2.93,3.586-2.93
			c1.782-0.023,3.282,1.008,3.563,2.93H65.883z"/>
		<path d="M98.51,23.538l-0.999-0.352c-1.413-0.492-1.778-1.055-1.778-1.781c0-0.821,0.804-1.289,1.73-1.289
			c0.855,0,1.46,0.349,1.976,0.914l1.365-1.187c-0.853-1.025-1.994-1.532-3.341-1.532c-2.217,0-3.801,1.359-3.801,3.117
			c0,1.406,0.755,2.695,2.899,3.469l0.95,0.352c1.437,0.492,2.071,0.984,2.071,1.875c0,0.891-0.975,1.477-2.168,1.477
			c-1.287,0-2.112-0.595-2.875-1.477l-1.44,1.252c1.053,1.278,2.55,2.03,4.266,2.03c2.656,0,4.312-1.477,4.312-3.352
			C101.678,25.32,100.581,24.265,98.51,23.538z"/>
		<path d="M160.637,15.332c-0.86,0-1.56,0.702-1.56,1.566c0,0.878,0.686,1.567,1.56,1.567c0.871,0,1.553-0.689,1.553-1.567
			S161.508,15.332,160.637,15.332z M160.637,18.213c-0.726,0-1.295-0.578-1.295-1.315c0-0.725,0.58-1.315,1.295-1.315
			c0.714,0,1.294,0.59,1.294,1.315C161.931,17.634,161.363,18.213,160.637,18.213z"/>
		<path d="M161.291,16.495c0-0.32-0.229-0.503-0.628-0.503h-0.621v1.759h0.29v-0.733h0.307l0.403,0.733h0.312l-0.421-0.775
			C161.172,16.915,161.291,16.753,161.291,16.495z M160.65,16.766h-0.317v-0.509h0.31c0.251,0,0.363,0.076,0.363,0.244
			C161.006,16.686,160.9,16.766,160.65,16.766z"/>
		<path d="M42.109,10.315c-0.86,0-1.56,0.702-1.56,1.566c0,0.878,0.686,1.567,1.56,1.567c0.871,0,1.553-0.689,1.553-1.567
			C43.662,11.003,42.98,10.315,42.109,10.315z M42.109,13.196c-0.726,0-1.295-0.578-1.295-1.315c0-0.725,0.58-1.315,1.295-1.315
			c0.714,0,1.294,0.59,1.294,1.315C43.403,12.618,42.835,13.196,42.109,13.196z"/>
		<path d="M42.763,11.478c0-0.32-0.229-0.503-0.628-0.503h-0.621v1.759h0.29v-0.733h0.307l0.403,0.733h0.312l-0.421-0.775
			C42.644,11.898,42.763,11.736,42.763,11.478z M42.122,11.749h-0.317V11.24h0.31c0.251,0,0.363,0.076,0.363,0.244
			C42.478,11.669,42.372,11.749,42.122,11.749z"/>
	</g>
	<g>
		<path fill="#E8171F" d="M11.966,20.135c1.859-3.706,4.916-6.683,8.52-8.415c0.421-0.202,0.849-0.387,1.283-0.555
			c0.039-0.015,0.022-0.073-0.019-0.066C8.921,13.258,3.417,29.203,11.984,36.028c0.032,0.026,0.075-0.014,0.051-0.048
			C10.79,34.274,7.855,28.392,11.966,20.135z"/>
		<path fill="#E8171F" d="M14.913,30.766c-0.336-2.104-0.331-4.243,0.003-6.307c0.671-4.136,2.669-7.927,5.543-10.737
			c0.533-0.526,1.101-1.013,1.69-1.465c0.032-0.025,0.003-0.076-0.035-0.059c-6.707,2.997-10.577,10.478-10.08,17.292
			c0.273,3.115,1.496,8.851,7.469,9.983c0.038,0.007,0.058-0.042,0.026-0.064C17.072,37.72,15.344,33.769,14.913,30.766z"/>
		<path fill="#E8171F" d="M6.624,15.403c2.998-4.235,9.154-7.093,15.166-6.35c0.042,0.005,0.054-0.055,0.014-0.067
			c-4.589-1.341-9.362-0.441-12.279,1.915c-1.251,1.01-2.223,2.754-2.961,4.469C6.547,15.408,6.6,15.438,6.624,15.403z"/>
		<path fill="#E8171F" d="M40.489,20.689c-0.793-9.693-9.527-17.038-19.212-16.154c-3.366,0.307-6.966,1.699-9.651,3.969
			c-0.033,0.028,0.003,0.079,0.04,0.058c2.295-1.315,5.46-1.282,7.326-1.065c0.983,0.115,1.954,0.321,2.896,0.612
			c0.941,0.293,1.853,0.671,2.721,1.127c0.45,0.238,0.889,0.497,1.314,0.775c1.584-0.704,3.254-1.172,4.938-1.409l0.004-0.001
			c0.12-0.017,0.242,0.047,0.282,0.161c0.053,0.149-0.04,0.301-0.184,0.331c-0.905,0.191-1.796,0.451-2.662,0.778
			c-0.038,0.014-0.028,0.071,0.013,0.071c1.228,0.004,2.448,0.135,3.635,0.384l0.006,0.001c0.105,0.022,0.191,0.105,0.204,0.212
			c0.02,0.176-0.129,0.304-0.285,0.281c-1.043-0.157-2.101-0.22-3.155-0.186c-0.042,0.001-0.049,0.06-0.009,0.072
			c0.493,0.151,0.979,0.324,1.455,0.515c0.897,0.366,1.759,0.808,2.578,1.312l0.01,0.006c0.078,0.048,0.129,0.136,0.118,0.228
			c-0.023,0.198-0.223,0.283-0.371,0.201c-0.816-0.451-1.668-0.838-2.546-1.15c-0.37-0.129-0.744-0.246-1.121-0.35
			c-0.041-0.011-0.065,0.044-0.029,0.067c0.616,0.389,1.206,0.816,1.762,1.282c0.742,0.622,1.428,1.305,2.049,2.04l0.006,0.007
			c0.06,0.071,0.08,0.17,0.041,0.254c-0.084,0.182-0.302,0.199-0.417,0.073c-0.627-0.69-1.314-1.325-2.049-1.898
			c-0.435-0.339-0.889-0.653-1.358-0.943c-0.037-0.023-0.076,0.025-0.046,0.057c0.134,0.141,0.265,0.284,0.393,0.43
			c0.641,0.73,1.216,1.516,1.713,2.346c0.496,0.831,0.916,1.704,1.252,2.607l0.003,0.007c0.032,0.087,0.018,0.189-0.048,0.255
			c-0.142,0.143-0.354,0.084-0.419-0.076c-0.347-0.865-0.774-1.698-1.272-2.487c-0.498-0.788-1.07-1.529-1.703-2.214
			c-0.633-0.684-1.33-1.31-2.075-1.869c-0.211-0.157-0.53-0.378-0.656-0.459c-14.578,8.128-9.519,29.473,1.001,28.364
			C35.339,37.33,41.209,29.492,40.489,20.689z"/>
		<path fill="#E8171F" d="M8.835,18.026c3.362-5.329,9.221-7.623,12.81-7.967c0.042-0.004,0.041-0.066-0.001-0.069
			c-1.483-0.128-2.855-0.031-4.653,0.344c-1.817,0.416-3.568,1.133-5.134,2.147c-1.57,1.006-2.954,2.298-4.077,3.786
			c-0.011,0.015-0.022,0.03-0.034,0.045c-2.165,2.901-2.86,6.628-2,10.144c0.098,0.403,0.372,1.236,0.557,1.765
			c0.014,0.039,0.072,0.026,0.068-0.015C5.924,24.042,7.135,20.722,8.835,18.026z"/>
	</g>
</g>
</svg>
